<svg xmlns="http://www.w3.org/2000/svg" width="610.886" height="576.286" viewBox="0 0 610.886 576.286" style="background-color: white;">
  <path id="cowboy-expanded" d="M607.18,97.718a210.664,210.664,0,0,1-78.047,49.595,70.289,70.289,0,0,1,.971,10.895v45.686A73.2,73.2,0,0,1,500.49,262.691v32.361a43.381,43.381,0,1,1-86.762,0,6.347,6.347,0,0,1,12.694,0,30.691,30.691,0,1,0,61.381,0l0-39.03,3.909-2.608a60.439,60.439,0,0,0,25.717-49.347V219.38a56.4,56.4,0,0,0-.451-6.98,214.768,214.768,0,0,1-60.693,8.883,213.444,213.444,0,0,1-59.1-8.465,62.079,62.079,0,0,0-.355,6.555V305.06A60.414,60.414,0,0,0,307.161,365.4a6.345,6.345,0,1,1,0,12.691A73.117,73.117,0,0,1,234.127,305.06V259.374a72.069,72.069,0,0,1,.831-10.394A213.259,213.259,0,0,1,155.441,97.718a6.345,6.345,0,1,1,8.973-8.973A197.814,197.814,0,0,0,228.355,131.7c.038-.1,0-.216.057-.317l25.381-63.453A28.256,28.256,0,0,1,297,6.942a15.622,15.622,0,0,0,18.655,0,28.243,28.243,0,0,1,43.148,12.107l10.787,26.98a6.346,6.346,0,1,1-11.783,4.715l-10.787-26.98a15.552,15.552,0,0,0-23.75-6.669,28.4,28.4,0,0,1-33.9,0A15.559,15.559,0,0,0,266,23.763L240.62,87.216c0,.044-.051.07-.07.114,1.313.451,2.589.964,3.915,1.39h0a202.224,202.224,0,0,0,125.91-.444h0a198.17,198.17,0,0,0,78.237-48.415,6.345,6.345,0,1,1,8.973,8.973ZM359.857,372.1a6.349,6.349,0,1,0,10.882-6.542,28.332,28.332,0,0,0-25.286-14.594,27.437,27.437,0,0,0-11.593,2.259,2.665,2.665,0,0,1-2.3,0,27.487,27.487,0,0,0-11.6-2.259,28.325,28.325,0,0,0-25.286,14.594,6.347,6.347,0,1,0,10.882,6.536,15.806,15.806,0,0,1,14.4-8.433,15.229,15.229,0,0,1,6.275,1.085,15.413,15.413,0,0,0,12.957,0,15.355,15.355,0,0,1,6.263-1.085,15.806,15.806,0,0,1,14.423,8.439Z" transform="translate(0 -1.291)" fill="#4e5054"/>
</svg>
